# xmcd
#
# Track frame offsets: 
#        150
#        11830
#        20602
#        31163
#        46767
#        59902
#        71465
#        80983
#        93607
#        107786
#        120490
#        130489
#        142481
#        154407
#        166175
#        179415
#        194751
#        204149
#        218885
#        227766
#
# Disc length: 3222 seconds
#
# Revision: 0
# Processed by: cddbd v1.5.2PL0 Copyright (c) Steve Scherf et al.
# Submitted via: ExactAudioCopy v0.99pb4
#
DISCID=300c9414
DTITLE=The Tennessee Guitars - 20 Pieces of Country Gold
DYEAR=1977
DGENRE=Instrumental
TTITLE0=Am I That Easy to Forget
TTITLE1=What's He Doing In My World
TTITLE2=Hang In There Girl
TTITLE3=Country Bumpkin
TTITLE4=Let Me Be There
TTITLE5=Before the Next Teardrop Falls
TTITLE6=Country Sunshine
TTITLE7=Little Band of Gold
TTITLE8=Hey Won't You Play Another Somebody Done Somebody Wrong Song
TTITLE9=Reconsider Me
TTITLE10=Would You Lay With Me
TTITLE11=A Very Special Love Song
TTITLE12=Sweet Gypsy Rose
TTITLE13=Paper Roses
TTITLE14=I Can Help
TTITLE15=I'm Not Lisa
TTITLE16=When Will I Be Loved
TTITLE17=Lizzie and the Rainmaker
TTITLE18=Wrong Road Again
TTITLE19=Country Boy (You've Got Your feet In L.A.)
EXTD=
EXTT0=
EXTT1=
EXTT2=
EXTT3=
EXTT4=
EXTT5=
EXTT6=
EXTT7=
EXTT8=
EXTT9=
EXTT10=
EXTT11=
EXTT12=
EXTT13=
EXTT14=
EXTT15=
EXTT16=
EXTT17=
EXTT18=
EXTT19=
PLAYORDER=
